PathFileType	4	(X/Y/Z)	C:\Users\Basilio\Documents\Thesis Gigler\squatting_fais\c3dfiles\036\SJ_pre3\markers_experimental.trc
DataRate	CameraRate	NumFrames	NumMarkers	Units	OrigDataRate	OrigDataStartFrame	OrigNumFrames
200.000000	200.000000	4	61	mm	200.000000	524	2099
Frame#	Time	FHD			LBHD			RBHD			C7			T10			CLAV			LSHO			LUUPA			LMUPA			LDUPA			LLEP			LMEP			LRAD			LUL			LRFIN			RSHO			RUPA1			RMUPA			RDUPA			RLEP			RMEP			RRAD			RUL			RUFIN			LASI			RASI			USACR			LSACR			RSACR			LTHI1			LTHI2			LTHI3			LTHI4			LLFC			LMFC			LTIB1			LTIB2			LTIB3			LTIB4			LLMAL			LMMAL			LHEE			LMT1			LMT2			LMT5			RTHI			RTHI2			RTHI3			RTHI4			RLFC			RMFC			RTIB1			RTIB2			RTIB3			RTIB4			RLMAL			RMMAL			RHEE			RMT1			RMT2			RMT5			
		X1	Y1	Z1	X2	Y2	Z2	X3	Y3	Z3	X4	Y4	Z4	X5	Y5	Z5	X6	Y6	Z6	X7	Y7	Z7	X8	Y8	Z8	X9	Y9	Z9	X10	Y10	Z10	X11	Y11	Z11	X12	Y12	Z12	X13	Y13	Z13	X14	Y14	Z14	X15	Y15	Z15	X16	Y16	Z16	X17	Y17	Z17	X18	Y18	Z18	X19	Y19	Z19	X20	Y20	Z20	X21	Y21	Z21	X22	Y22	Z22	X23	Y23	Z23	X24	Y24	Z24	X25	Y25	Z25	X26	Y26	Z26	X27	Y27	Z27	X28	Y28	Z28	X29	Y29	Z29	X30	Y30	Z30	X31	Y31	Z31	X32	Y32	Z32	X33	Y33	Z33	X34	Y34	Z34	X35	Y35	Z35	X36	Y36	Z36	X37	Y37	Z37	X38	Y38	Z38	X39	Y39	Z39	X40	Y40	Z40	X41	Y41	Z41	X42	Y42	Z42	X43	Y43	Z43	X44	Y44	Z44	X45	Y45	Z45	X46	Y46	Z46	X47	Y47	Z47	X48	Y48	Z48	X49	Y49	Z49	X50	Y50	Z50	X51	Y51	Z51	X52	Y52	Z52	X53	Y53	Z53	X54	Y54	Z54	X55	Y55	Z55	X56	Y56	Z56	X57	Y57	Z57	X58	Y58	Z58	X59	Y59	Z59	X60	Y60	Z60	X61	Y61	Z61	

525	2.62	-74.30663299560548	1445.947021484375	-957.9543457031252	-233.2156066894532	1365.204711914063	-1010.870239257813	-180.9346008300782	1396.155151367188	-871.137390136719	nan	nan	nan	-389.0584411621095	1033.659912109375	-946.4153442382815	-136.6289367675782	1187.453735351563	-942.3201293945315	-154.3604736328125	1238.487426757813	-1087.288696289063	-243.7834167480469	1152.300170898438	-1223.201171875	-230.717025756836	1103.351684570313	-1223.080932617188	-277.7502136230469	1105.006103515625	-1262.46435546875	-304.4543457031251	1055.577514648438	-1280.244018554688	-363.8065795898438	1074.105346679688	-1251.62060546875	-306.5960388183594	823.1246337890627	-1225.79296875	-336.0564880371094	857.6838378906252	-1171.40673828125	-312.6639709472657	810.3642578125002	-1134.670532226563	-167.4356994628907	1248.072387695313	-800.1253051757815	-250.6489868164063	1167.545532226563	-677.2144775390626	-227.9264068603516	1123.526733398438	-676.0769042968751	-272.2072753906251	1114.126708984375	-636.4235839843751	-295.7766113281251	1049.410888671875	-611.7860717773439	-363.0253906250001	1049.278686523438	-648.0775146484376	-316.2926025390626	852.240905761719	-724.8494873046876	-280.7400817871094	821.5057373046877	-677.3639526367189	-304.2482604980469	808.836120605469	-767.0117187500001	-305.6212158203126	795.937438964844	-1068.07958984375	-313.1977233886719	805.5704345703127	-810.322204589844	-442.1817932128907	961.2963867187502	-950.227722167969	-470.1575927734376	943.0914306640627	-976.3664550781252	-466.4252319335939	945.9796142578127	-919.9602661132815	-387.0606689453126	715.7493896484376	-1167.839721679688	-329.6066894531251	655.8357543945314	-1171.92138671875	-290.0192871093751	676.7040405273439	-1157.134155273438	-334.2805175781251	597.5239868164064	-1172.675415039063	-295.4243469238282	452.8191833496095	-1165.488525390625	-261.7012939453126	414.9359130859376	-1025.102783203125	-232.1923217773438	273.6745605468751	-1105.232666015625	-263.9313049316407	240.062484741211	-1179.753784179688	-241.1544952392579	230.7458953857422	-1141.59033203125	-258.4091186523438	151.2734680175782	-1114.666015625	-324.7711181640626	81.1618118286133	-1173.799438476563	-305.4949035644532	83.30384826660158	-1090.947998046875	-377.8328857421876	55.02056121826173	-1139.050170898438	-189.0041046142578	56.46716690063478	-1108.084594726563	-176.7679748535157	57.35715484619142	-1155.487670898438	-215.3404541015626	34.20565414428712	-1204.5078125	-423.4775390625001	647.4440307617189	-728.2751464843751	-365.8906250000001	616.4456787109376	-712.3520507812501	-337.8462829589844	633.4594116210939	-710.3667602539064	-349.4096374511719	535.2518310546876	-720.4928588867189	-284.4971618652344	443.977752685547	-715.4837646484376	-244.9981079101563	440.7467041015626	-854.0374145507815	-242.0648193359376	287.3640441894532	-746.7841186523439	-324.8673706054688	224.5986938476563	-701.1820068359376	-282.8496704101563	215.4938659667969	-719.7938232421876	-280.6694641113282	165.1286315917969	-750.6268920898439	-372.8587036132813	81.42916870117189	-730.4196166992189	-332.6606140136719	84.19906616210939	-804.4472656250002	-413.2694702148439	53.25707244873048	-771.4066162109377	-215.254623413086	55.32191085815431	-765.8153686523439	-221.0635681152344	59.9483985900879	-715.8930664062501	-263.4735717773438	34.88648223876954	-674.6420898437501	
526	2.625	-73.89582824707033	1444.100830078125	-957.7478637695315	-232.4065856933594	1363.625366210938	-1010.707214355469	-180.5299835205078	1394.471435546875	-870.8442382812502	nan	nan	nan	-389.0619201660157	1032.537109375	-946.428649902344	-136.2020416259766	1185.842651367188	-942.1602783203127	-153.5502471923828	1236.890380859375	-1087.024169921875	-243.0483703613282	1150.901000976563	-1223.2568359375	-230.2864532470704	1102.232666015625	-1223.270629882813	-277.4307556152344	1103.645629882813	-1262.426635742188	-303.6795349121094	1054.357543945313	-1280.20556640625	-363.8456726074219	1073.4345703125	-1252.098999023438	-307.0573730468751	822.322692871094	-1226.112060546875	-336.4853820800782	856.7246704101565	-1171.56396484375	-313.8082885742188	809.4895629882815	-1134.469848632813	-166.74609375	1246.43212890625	-800.0559082031252	-250.1949615478516	1166.169555664063	-677.1692504882814	-227.6162567138672	1121.993041992188	-675.8960571289064	-271.5635070800782	1112.959106445313	-636.1655273437501	-295.5520019531251	1048.2724609375	-611.4881591796876	-362.5751953125001	1048.1298828125	-647.9667968750001	-316.6545410156251	851.1541137695315	-724.4717407226564	-281.6272888183594	820.5405883789065	-677.1919555664064	-305.2189636230469	807.4678955078127	-766.7597656250001	-306.1917419433594	794.962097167969	-1068.0078125	-314.2552795410157	804.7955322265627	-810.3123168945315	-442.4403381347657	960.3732910156252	-950.2244262695315	-470.5831298828126	942.3544921875002	-976.3608398437502	-466.8638610839845	945.4085083007815	-919.9492187500002	-387.3958129882814	715.2501220703126	-1168.067626953125	-329.6893005371094	655.4744873046876	-1172.06982421875	-290.1943664550782	676.4144287109376	-1157.288452148438	-334.3955688476563	597.1936645507814	-1172.867553710938	-295.0400085449219	452.7020263671876	-1165.838623046875	-261.0712890625001	414.752655029297	-1025.429321289063	-231.3289947509766	273.4369201660157	-1105.545776367188	-263.7218017578126	239.9991760253907	-1179.855590820313	-240.7000579833985	230.2866210937501	-1141.703369140625	-258.3857727050782	151.2418365478516	-1114.757690429688	-324.7087097167969	81.12987518310548	-1173.797485351563	-305.3809204101563	83.26792144775392	-1090.959838867188	-377.8032226562501	55.01781082153322	-1139.061889648438	-188.9620056152344	56.44609832763673	-1108.07763671875	-176.7532043457032	57.35117721557619	-1155.529907226563	-215.1598358154297	34.1616325378418	-1204.601684570313	-423.643280029297	646.9061889648439	-728.0244750976564	-365.9865417480469	615.9309692382814	-712.1967773437501	-337.8028259277344	632.9852905273439	-710.2986450195314	-349.1727905273438	534.6192626953126	-720.4560546875001	-283.7764282226563	443.7694396972657	-715.2910156250001	-244.4550323486329	440.577362060547	-853.7941894531252	-241.8313293457032	287.1816406250001	-746.9689331054689	-324.5439758300782	224.4414520263672	-701.0667114257814	-282.6156921386719	215.3768615722657	-719.5523071289064	-280.6783447265626	165.0533142089844	-750.7485351562501	-372.8215026855469	81.39987182617189	-730.4795532226564	-332.6615295410157	84.22076416015626	-804.459899902344	-413.2557983398439	53.25793457031251	-771.437438964844	-215.2509155273438	55.31567764282228	-765.8285522460939	-221.0021667480469	59.90202713012697	-715.9140014648439	-263.5338134765626	34.98199081420899	-674.6044311523439	
527	2.63	-73.00160217285158	1442.70068359375	-957.8037109375002	-231.6030426025391	1361.959228515625	-1010.724731445313	-179.7618408203125	1392.838989257813	-870.8857421875002	nan	nan	nan	-388.9767456054689	1031.571533203125	-946.4224243164065	-135.8032684326172	1184.135009765625	-942.2133789062502	-153.2398986816407	1235.182861328125	-1087.108154296875	-242.5744781494141	1149.658081054688	-1223.292602539063	-229.6141204833985	1100.688842773438	-1223.37744140625	-276.6506652832032	1102.309204101563	-1262.375610351563	-303.8830261230469	1053.398803710938	-1280.198120117188	-363.4024047851563	1072.747436523438	-1252.429077148438	-308.1800537109376	820.9410400390627	-1226.084228515625	-337.3541564941407	855.750915527344	-1171.749633789063	-314.3346862792969	808.7869873046877	-1134.52392578125	-166.1004943847657	1244.988037109375	-800.0963134765627	-249.4794921875001	1164.926635742188	-676.9481811523439	-227.2129364013672	1120.736450195313	-675.7662963867189	-271.1182250976563	1111.781616210938	-635.9110107421876	-295.0895996093751	1047.138549804688	-611.4787597656251	-362.4107971191407	1047.475952148438	-647.4498901367189	-317.5308227539063	850.4370727539065	-724.4430541992189	-282.1541748046876	819.234313964844	-677.2107543945314	-305.4304809570313	806.6956176757815	-766.8385620117189	-306.6464233398438	793.9808349609377	-1068.007446289063	-314.5555114746094	803.3906860351565	-810.2490844726565	-442.6908569335939	959.5457153320315	-950.0822753906252	-470.9372558593751	941.440124511719	-976.2905883789065	-467.7400207519532	944.7510986328127	-919.8990478515627	-387.8350219726564	714.6494140625001	-1168.226806640625	-329.9162902832032	655.1198730468751	-1172.199462890625	-290.5229797363282	676.1674194335939	-1157.4091796875	-334.3846130371094	596.8303833007814	-1173.025268554688	-294.6260986328126	452.5417785644532	-1166.121704101563	-260.5948181152344	414.6863403320314	-1025.682739257813	-230.905258178711	273.2497863769532	-1105.717041015625	-263.5727844238282	239.8798980712891	-1180.029418945313	-240.5710601806641	230.0191650390626	-1141.831176757813	-258.1557312011719	151.1507110595703	-1114.815795898438	-324.7918090820313	81.1627883911133	-1173.845825195313	-305.3018798828126	83.33407592773439	-1090.980346679688	-377.8010864257813	55.01902008056642	-1139.060180664063	-188.9667510986328	56.45481109619142	-1108.162719726563	-176.783447265625	57.35526657104494	-1155.587890625	-215.2653503417969	34.15008544921876	-1204.568237304688	-423.8688964843751	645.9771118164064	-727.8453979492189	-365.9355163574219	615.3004760742189	-712.0738525390626	-337.7630310058594	632.4620971679689	-710.3189086914064	-348.7512817382813	534.0443115234376	-720.2914428710939	-283.2610168457032	443.4263610839845	-715.0200195312501	-243.9134979248047	440.4064331054689	-853.4860839843752	-241.2856903076172	286.9619445800782	-746.9475097656251	-324.2128906250001	224.2297973632813	-700.8926391601564	-282.2435607910157	215.2649993896485	-719.5650024414064	-280.5439147949219	164.9612579345703	-750.6101684570314	-372.7558898925782	81.37423706054689	-730.4833984375001	-332.6000061035157	84.15673065185548	-804.4411621093752	-413.2289123535157	53.30843734741212	-771.4754638671877	-215.9209899902344	54.86891555786134	-766.0808715820314	-221.0501708984376	59.86626434326173	-715.9011840820314	-263.5605163574219	34.9552345275879	-674.6000366210939	
528	2.635	-72.17299652099611	1440.941284179688	-957.6053466796877	-230.8372192382813	1360.435180664063	-1010.624572753906	-179.0801239013672	1391.177978515625	-870.8111572265627	nan	nan	nan	-388.963348388672	1030.54296875	-946.3560180664065	-135.1988983154297	1182.397338867188	-942.178649902344	-152.5364074707032	1233.812622070313	-1087.07373046875	-242.0233306884766	1148.375122070313	-1223.338500976563	-229.3488922119141	1099.5068359375	-1223.337768554688	-276.0714111328126	1101.349487304688	-1262.613525390625	-303.3968811035157	1052.48779296875	-1280.739624023438	-363.0933837890626	1071.872680664063	-1252.767700195313	-308.6855163574219	819.9283447265627	-1226.26318359375	-337.9160156250001	854.8957519531252	-1171.929931640625	-314.8985290527344	808.2039794921877	-1134.659057617188	-165.6554412841797	1243.320434570313	-799.8660278320315	-248.8582763671876	1163.690063476563	-676.8556518554689	-226.6744079589844	1119.201293945313	-675.6591186523439	-270.4922485351563	1110.562622070313	-635.8223266601564	-294.9966125488282	1045.965209960938	-611.0877685546876	-362.1611022949219	1046.416748046875	-647.1033325195314	-318.1478576660157	849.2399902343752	-724.1762695312501	-282.7193603515626	818.073913574219	-677.0694580078126	-305.8271484375001	805.7623291015627	-766.7327270507814	-306.9874572753907	793.133239746094	-1068.092529296875	-314.5555725097657	802.4960937500002	-810.3594970703127	-442.9820861816407	958.5970458984377	-950.1849365234377	-471.4597778320314	940.7121582031252	-976.2440185546877	-467.9928283691407	943.7703857421877	-919.900573730469	-387.7117004394532	713.7468261718751	-1168.377197265625	-330.1189880371094	654.7498168945314	-1172.30078125	-290.8860168457032	675.9069824218751	-1157.540649414063	-334.5191040039063	596.4585571289064	-1173.287841796875	-293.9840087890626	452.363006591797	-1166.444458007813	-260.1583862304688	414.5012817382814	-1025.997802734375	-230.8106994628907	273.0357055664063	-1105.857177734375	-263.7062683105469	239.706527709961	-1179.955200195313	-240.3938751220704	229.8715209960938	-1142.081420898438	-257.9411926269532	150.9524078369141	-1114.9052734375	-324.7306518554688	81.11687469482423	-1173.8583984375	-305.2851257324219	83.35024261474611	-1090.968139648438	-377.8770751953126	55.09363174438478	-1138.988037109375	-188.9112243652344	56.4525718688965	-1108.155029296875	-176.6490631103516	57.35732650756837	-1155.704223632813	-215.6224060058594	34.40222930908204	-1204.573608398438	-424.0280761718751	645.3088378906251	-727.8027343750001	-365.9164428710938	614.8095703125001	-711.9669799804689	-337.8377685546876	632.0231323242189	-710.3186645507814	-348.4403076171876	533.7736206054689	-719.9760131835939	-282.7808837890626	443.1871643066407	-714.7338256835939	-242.8647155761719	440.0007324218751	-853.4820556640627	-240.8613281250001	286.7182006835938	-746.9003906250001	-323.8400878906251	224.1011810302735	-700.7825317382814	-281.9205322265626	215.0867309570313	-719.5679931640626	-280.3399047851563	164.7116241455078	-750.5425415039064	-372.7426147460938	81.37989044189455	-730.4597778320314	-332.6290283203126	84.16238403320314	-804.4781494140627	-413.1869506835939	53.3054885864258	-771.4777832031252	-215.2048339843751	55.27664947509767	-765.8283691406251	-220.927719116211	59.85844039916994	-715.8845825195314	-263.5128173828126	34.97387313842774	-674.6107177734376	
